<?xml version="1.0" encoding="utf-8"?>
<!-- Generator: Adobe Illustrator 23.0.2, SVG Export Plug-In . SVG Version: 6.00 Build 0)  -->
<svg version="1.1" id="Layer_1" xmlns="http://www.w3.org/2000/svg" xmlns:xlink="http://www.w3.org/1999/xlink" x="0px" y="0px"
	 viewBox="0 0 724.24 121.18" style="enable-background:new 0 0 724.24 121.18;" xml:space="preserve">
<style type="text/css">
	.st0{fill:#0C2037;}
	.st1{fill:#FFFFFF;}
</style>
<g>
	<polygon class="st0" points="0,0 724.24,0 702.82,61.88 722.59,121.18 0,121.18 21.88,62.59 	"/>
	<path class="st1" d="M61.32,29.18h16.02v47.26h25.63v15.75H61.32V29.18z"/>
	<path class="st1" d="M119.71,49.91c0-14.51,12.99-21.63,26.08-21.63s26.17,7.21,26.17,21.63v21.54c0,14.42-12.99,21.63-26.08,21.63
		s-26.17-7.21-26.17-21.63V49.91z M135.64,71.45c0,4.63,5.16,6.85,10.24,6.85s10.15-2.31,10.15-6.85V49.91
		c0-4.9-5.25-7.12-10.41-7.12c-4.98,0-9.97,2.49-9.97,7.12V71.45z"/>
	<path class="st1" d="M238.89,78.93c-5.25,10.24-14.77,14.15-22.7,14.15c-12.37,0-24.83-7.21-24.83-21.54V49.82
		c0-14.24,12.46-21.54,25.1-21.54c7.74,0,17.09,3.29,22.16,14.51l-13,5.25c-4.27-7.83-18.33-6.05-18.33,1.78v21.72
		c0,7.57,14.24,9.7,17.71,0.98L238.89,78.93z"/>
	<path class="st1" d="M310.18,92.19h-17.09L289,79.55h-16.82l-3.92,12.64h-17.09l21.98-63.02h14.51L310.18,92.19z M285.17,65.4
		l-4.36-18.42h-0.45l-4.63,18.42H285.17z"/>
	<path class="st1" d="M326.82,29.18h16.02v47.26h25.63v15.75h-41.65V29.18z"/>
	<path class="st1" d="M439.68,29.18h16.47l-18.16,63.02h-14.77l-5.61-17.44l-2.22-14.42h-0.27l-2.4,14.33l-4.98,17.53h-14.77
		l-18.25-63.02h16.55l7.48,30.17l1.6,13.35h0.44l1.51-13.26l7.03-22.07h12.1l6.5,22.16l2.05,13.17h0.27l1.78-13.17L439.68,29.18z"/>
	<path class="st1" d="M470.83,49.91c0-14.51,13-21.63,26.08-21.63c13.08,0,26.17,7.21,26.17,21.63v21.54
		c0,14.42-13,21.63-26.08,21.63c-13.08,0-26.17-7.21-26.17-21.63V49.91z M486.77,71.45c0,4.63,5.16,6.85,10.24,6.85
		s10.15-2.31,10.15-6.85V49.91c0-4.9-5.25-7.12-10.41-7.12c-4.98,0-9.97,2.49-9.97,7.12V71.45z"/>
	<path class="st1" d="M562.95,72.16h-2.85v20.03H544V29.18h25.19c13,0,23.05,5.96,23.41,20.74c0,11.66-4.72,18.25-12.37,20.65
		l17.18,21.63h-19.85L562.95,72.16z M569.45,58.46c10.06,0,10.06-14.42,0-14.42h-9.35v14.42H569.45z"/>
	<path class="st1" d="M649.11,29.18h18.51L650,60.77l17.62,31.42h-18.51l-11.04-21.45L627.3,92.19h-18.6l17.71-31.42l-17.71-31.6
		h18.6l10.77,21.54L649.11,29.18z"/>
	<polygon class="st1" points="29.1,100.14 43.35,61.99 29.1,21.22 21.05,21.22 35.3,61.99 21.05,100.14 	"/>
	<polygon class="st1" points="695.13,100.14 680.88,61.99 695.13,21.22 703.18,21.22 688.93,61.99 703.18,100.14 	"/>
</g>
</svg>
