<?xml version="1.0" encoding="UTF-8"?>
<svg id="Layer_1" xmlns="http://www.w3.org/2000/svg" version="1.1" viewBox="0 0 724.24 702.36">
  <!-- Generator: Adobe Illustrator 29.0.1, SVG Export Plug-In . SVG Version: 2.1.0 Build 192)  -->
  <defs>
    <style>
      .st0 {
        fill: #7090a5;
      }

      .st1 {
        fill: #fffef2;
      }

      .st2 {
        fill: #fffdf6;
      }

      .st3 {
        fill: #fff;
      }

      .st4 {
        fill: #f4fafa;
      }

      .st5 {
        fill: #a3bbca;
      }

      .st6 {
        fill: #5f819d;
      }

      .st7 {
        fill: #526e82;
      }

      .st8 {
        fill: #95adbe;
      }

      .st9 {
        fill: #395d7d;
      }

      .st10 {
        fill: #a7b8c8;
      }

      .st11 {
        fill: #0c2037;
      }

      .st12 {
        fill: #7d9cae;
      }

      .st13 {
        fill: #fafdff;
      }

      .st14 {
        fill: #fefdf3;
      }

      .st15 {
        fill: #bfcdd6;
      }

      .st16 {
        fill: #6d8296;
      }

      .st17 {
        fill: #fafbf1;
      }

      .st18 {
        fill: #597792;
      }

      .st19 {
        fill: #081a36;
      }

      .st20 {
        fill: #496885;
      }

      .st21 {
        fill: #4f7595;
      }
    </style>
  </defs>
  <g>
    <path class="st11" d="M175.41,243.88v84.71l-95.29,27.18h-18.71c-.04-1.98-.06-3.97-.06-5.97,0-54.72,13.99-106.09,38.53-150.56v27.35l75.53,17.29Z"/>
    <polygon class="st18" points="145.65 311.47 145.65 319.9 148.12 319.46 147.65 330.24 99.53 341.3 99.53 272.83 106.94 272.83 107.48 315.13 145.65 311.47"/>
    <path class="st11" d="M615.93,511.06c-52.81,87.31-147.24,145.47-254.93,145.47s-202.13-58.16-254.95-145.47h509.88Z"/>
    <path class="st11" d="M46.3,356.47c-.03-1.76-.07-3.52-.07-5.29C46.23,172.59,187.66,27.82,362.12,27.82s315.88,144.77,315.88,323.36c0,1.77-.04,3.53-.07,5.29h27.19c.03-1.76.04-3.53.04-5.29C705.17,157.23,551.58,0,362.12,0S19.06,157.23,19.06,351.18c0,1.77.02,3.53.04,5.29h27.19Z"/>
    <path class="st11" d="M636.72,511.06c-54.36,97.64-156.96,163.48-274.6,163.48s-220.24-65.84-274.61-163.48h-30.91c56.83,113.57,172.29,191.3,305.51,191.3s248.67-77.73,305.5-191.3h-30.9Z"/>
    <path class="st11" d="M188.12,159.88l-11.3,13.77-43.42-23.36c2.2-2.63,4.44-5.22,6.73-7.77.33-.37.67-.74,1-1.11,1.44-1.6,2.9-3.17,4.37-4.73l8.7,4.73,33.92,18.47Z"/>
    <path class="st20" d="M176.82,173.65l-1.41,70.23-75.53-17.29v-27.35c2.15-3.91,4.39-7.76,6.71-11.56,1.15-1.9,2.33-3.79,3.53-5.66.81-1.28,1.64-2.55,2.48-3.81,1.65-2.52,3.34-5,5.07-7.45,4.96-7.06,10.2-13.89,15.72-20.47h.01l43.42,23.36Z"/>
    <polygon class="st2" points="156.26 181.24 167.65 186.47 167.65 227.18 170.35 231.41 154.5 229.41 154.5 225.44 156.71 225.44 156.26 181.24"/>
    <polygon class="st11" points="160 189.88 162.43 190.71 162.92 226.5 160 226 160 189.88"/>
    <polygon class="st2" points="132.19 172.24 143.57 177.47 143.57 221.3 146.28 225.77 130.43 221.18 130.43 217.21 132.63 217.21 132.19 172.24"/>
    <polygon class="st11" points="135.91 178.91 138.34 179.74 138.95 219.1 136.03 218.6 135.91 178.91"/>
    <path class="st2" d="M120.46,219.1l-15.85-4.59v-3.97h2.2l-.22-22.86c1.15-1.9,2.33-3.79,3.53-5.66.81-1.28,1.64-2.55,2.48-3.81,1.65-2.52,3.34-5,5.07-7.45l.09.04v43.82l2.7,4.48Z"/>
    <path class="st11" d="M113.13,212.42l-2.92-.5-.09-29.9c.81-1.28,1.64-2.55,2.48-3.81l.53,34.21Z"/>
    <polygon class="st18" points="155.06 270 155.06 328.47 166.35 325.41 166.35 270 155.06 270"/>
    <path class="st11" d="M148.12,319.46c-.35,0-45.88,8.54-45.88,8.54v6.82l45.88-9.53v-5.84Z"/>
    <polygon class="st11" points="166.35 315.3 157.41 317.88 157.41 323.06 166.35 320.36 166.35 315.3"/>
    <polygon class="st11" points="173.82 263.65 180.18 270.53 180.18 275.65 173.82 275.65 173.82 263.65"/>
    <path class="st15" d="M577.32,137.57c-54.52-58.25-131.28-94.51-216.32-94.51s-161.02,35.9-215.5,93.62c-1.47,1.56-2.93,3.13-4.37,4.73h148.1c-1.41-6.59-7.98-13.18-13.84-16.01-3.86-1.86-8.15-2.65-12.41-2.69-.76-.01-6.01.65-9.38,1.15-1.56.24-3.16-.21-4.32-1.29-2.2-2.06-7.21-4.82-17.4-2.57-15.18,3.36-21.53,15.53-21.53,15.53-11.47-5.88-18.71,1.59-18.71,1.59l-5.52-1.35s29.88-43.06,66.58-43.06,47.06,24.94,47.06,24.94c15.53-9.18,28.24,6.59,28.24,6.59,1.64-6.12,13.41-18.36,34.12-17.88,20.7.47,32.23,19.05,32.23,19.05,8.71-14.82,30.59-8,30.59-8,0,0,13.18-26.35,50.35-23.76,37.18,2.59,61.65,42.82,61.65,42.82l-5.18.94c-6.82-8.23-19.06-3.53-19.06-3.53-20.47-25.17-39.53-8.94-39.53-8.94-25.41-8-35.29,16.47-35.29,16.47h142.98c-1.17-1.29-2.34-2.57-3.54-3.84ZM308,72.71c55.53-41.88,106.35,1.88,106.35,1.88l-106.35-1.88Z"/>
    <path class="st11" d="M588.38,150.04l-36.62,21.26h-3.41l-6.94-10.83,29.89-19.06,6.02-3.84c1.2,1.27,2.37,2.55,3.54,3.84.34.37.68.74,1.01,1.11,2.21,2.47,4.38,4.97,6.51,7.52Z"/>
    <path class="st6" d="M624.7,204.03v25.15l-68,14.35v7.06h-4l-.94-79.29,36.62-21.26c5.18,6.17,10.12,12.54,14.81,19.11,1.92,2.7,3.8,5.43,5.63,8.19,1.61,2.41,3.18,4.84,4.71,7.3.83,1.32,1.64,2.64,2.44,3.97.78,1.29,1.55,2.59,2.31,3.89,2.22,3.79,4.36,7.64,6.42,11.53Z"/>
    <path class="st11" d="M632.47,219.79v133.15l-79.53-23.06v-52.23h-2.59v-5.53l3.71-3.71v-17.82h2.64v-7.3l68-14.11v-25.15c2.74,5.16,5.33,10.42,7.77,15.76Z"/>
    <path class="st11" d="M660.64,349.8c0,2.31-.02,4.61-.08,6.91h-18.68v-113.97c12.13,33.33,18.76,69.4,18.76,107.06Z"/>
    <path class="st5" d="M641.88,242.74v113.97h-82.82l-152-63.06,15.76-.24,209.65,59.53v-133.15c3.43,7.49,6.57,15.14,9.41,22.95Z"/>
    <path class="st11" d="M504,181.94s6.35-6,6.35-17.12l-7.06-7.06v-3.33h-3.53v3.68l-7.41,7.06s.71,12.53,6.35,17.12v117.43h-2.82v9.63h-3.53v6.53h-3.18v4.94h14.29l39.74,6.77-39.1-11.1v-4.31h2.72v-4.76h-3l.18-125.47Z"/>
    <path class="st11" d="M608.82,177.34v36.66l-5.24,1.67s-.31-36.61-.39-46.52c1.92,2.7,3.8,5.43,5.63,8.19Z"/>
    <polygon class="st11" points="583.88 172.12 583.88 221.18 578.93 222.31 578.93 173.77 583.88 172.12"/>
    <polygon class="st11" points="566.6 187.51 565.96 226.11 557.91 228.16 558 189.3 566.6 187.51"/>
    <path class="st11" d="M546.53,182.83s-16.24,6.53-27.35,3.71c0,0-5.12,8.59-16.59,12.94v107.76l43.94,11.82v-136.24Z"/>
    <polygon class="st0" points="538.96 195.7 538.41 244.94 503.9 252 504.45 209.55 538.96 195.7"/>
    <path class="st2" d="M503.89,258l37.7-6v7.59s-7.24,1.24-7.76,5.91,0,13.85,0,13.85h-25.06v-3.26l10.41-8.56-1.24,8.38h1.59l8.65-10.68-1.5,11.38h1.68l4.24-10.41v-4.24h-24.18l-4.51,3.71v-7.68Z"/>
    <polygon class="st2" points="510.71 282.71 516.19 282.71 516.19 303.88 510.71 302.24 510.71 282.71"/>
    <polygon class="st2" points="522.25 282.71 528.72 282.71 528.72 307.65 522.25 305.71 522.25 282.71"/>
    <polygon class="st2" points="534.74 282.71 541.97 282.71 541.97 310.59 534.74 308.42 534.74 282.71"/>
    <polygon class="st5" points="503.9 271.94 512.82 268.68 506.65 274.59 506.65 310.24 502.59 307.24 502.15 272.03 503.9 271.94"/>
    <polygon class="st21" points="561.41 276.36 561.41 324.59 571.29 327.59 571.29 276.36 561.41 276.36"/>
    <path class="st13" d="M585.29,331.18v-47.76c0-1.95-1.58-3.53-3.53-3.53h0c-1.95,0-3.53,1.58-3.53,3.53v46.24l7.06,1.53Z"/>
    <path class="st11" d="M582.22,309.05l-2.12-.58c-.66-.18-1.19-.86-1.19-1.52h0c0-.66.53-1.05,1.19-.87l2.12.58c.66.18,1.19.86,1.19,1.52h0c0,.66-.53,1.05-1.19.87Z"/>
    <path class="st3" d="M622.41,289.94v42.36l-28.15-5.3-.21-7.63-.8-29.56v-.05c0-.83.68-1.51,1.52-1.51s1.52.68,1.52,1.52v31.94l1.6.31h.03s1.55.31,1.55.31v-31.86c0-1.27.51-2.41,1.34-3.24s1.98-1.35,3.25-1.35c2.53,0,4.58,2.06,4.58,4.59v33.27l4.42.35v-34.15c0-1.29.52-2.46,1.37-3.3.84-.85,2.01-1.37,3.3-1.37,2.59,0,4.68,2.09,4.68,4.67Z"/>
    <polygon class="st21" points="622.41 340.83 622.41 332.3 594.26 327 594.26 333.18 622.41 340.83"/>
    <path class="st16" d="M596.29,289.77v31.83l-2.03-.54-.21-1.69-.8-29.56v-.05c0-.83.68-1.51,1.52-1.51s1.52.68,1.52,1.52Z"/>
    <path class="st3" d="M613.53,282.71v-10.59h3.59c2.92,0,5.29,2.37,5.29,5.29h0c0,2.92-2.37,5.29-5.29,5.29h-3.59Z"/>
    <path class="st2" d="M567.18,264.8l13.24-17.65h-7.79c-3.46,0-6.26,2.8-6.26,6.26h0s3.12,0,3.12,0l4.76-2.47-16.06,17.03v6.04c0,.66.53,1.19,1.19,1.19h.85c.66,0,1.19-.53,1.19-1.19v-2.96c0-.49.4-.88.88-.88h.38c.49,0,.88.4.88.88v2.96c0,.66.53,1.19,1.19,1.19h.41c.66,0,1.19-.53,1.19-1.19v-3.4c0-.49.4-.88.88-.88h.29c.49,0,.88.4.88.88v3.4c0,.66.53,1.19,1.19,1.19h.5c.66,0,1.19-.53,1.19-1.19v-3.22c0-.49.4-.88.88-.88h.21c.49,0,.88.4.88.88v3.22c0,.66.53,1.19,1.19,1.19h.18c.66,0,1.19-.53,1.19-1.19v-3.04c0-.49.4-.88.88-.88h.26c.49,0,.88.4.88.88v3.04c0,.66.53,1.19,1.19,1.19h.18c.66,0,1.19-.53,1.19-1.19v-3.13c0-.49.4-.88.88-.88h.35c.49,0,.88.4.88.88v2.78c0,.66.53,1.19,1.19,1.19h0c.66,0,1.19-.53,1.19-1.19v-2.6c0-.49.4-.88.88-.88h.44c.49,0,.88.4.88.88v2.96c0,.66.53,1.19,1.19,1.19h.62c.66,0,1.19-.53,1.19-1.19v-2.87c0-.49.4-.88.88-.88h0c.49,0,.88.4.88.88v2.87c0,.66.53,1.19,1.19,1.19h.53c.66,0,1.19-.53,1.19-1.19v-3.04c0-.49.4-.88.88-.88h.71c.49,0,.88.4.88.88v4.24h0c-.88,0-1.59.71-1.59,1.59v5.91s11.38,0,11.38,0v-9.03c0-.64-.52-1.15-1.15-1.15h0c-.45,0-.85.26-1.04.66l-.73,1.56c-.19.4-.6.66-1.04.66h-2.21v-5.12l14.21-14.68v-3.79l-17.65,14.82,24.97-25.15v-2.38h-5.56l-23.6,27.53,20.28-25.76-5.7.35-23.54,24.18,20.21-23.03-3.79.36-23.21,23.2,21.09-23.2-7.18,1.41-18.41,21.44,15.23-20.12-5.44.88-15.62,18.79"/>
    <polygon class="st11" points="182 356.71 236.24 333.65 236.24 327.59 161.88 356.71 182 356.71"/>
    <polygon class="st10" points="78.12 356.71 175.41 328.59 175.41 323.06 182.65 323.06 182.65 317.18 220.12 305.77 237.71 307.06 240 319.06 327.88 295.18 325.06 306.27 236.24 333.65 236.24 327.59 161.88 356.71 78.12 356.71"/>
    <polygon class="st7" points="213.09 318.27 192 323.06 175.41 323.06 175.41 328.59 213.53 321.41 213.09 318.27"/>
    <path class="st11" d="M269.88,299.24c-3.17-2.65-6.47-7.12-8.12-13.83-1.64-6.7-3.52-15.53-7.29-15.41-3.76.12-3.06-3.53-3.06-3.53,0,0,4.47-.35,6.35-2.82,1.89-2.47-3.29-22.24-10.47-22.24s-9.88,14.95-9.53,20.12c.36,5.18,8.59,4.33,8.59,4.33,0,0,.12,2.61-4.7,4.14-4.83,1.53-6.59,11.77-6.94,20.47-.36,8.71-7.18,17.89-1.53,16.59,5.64-1.29,5.41-27.76,7.17-27.53,1.77.24.94,11.06-.82,30.24-1.71,18.53,1.43,39.27,1.64,40.63-.18.02-.38.05-.58.07-7.77.94-9.77,6.24-9.77,6.24h32.24c0-6-7.77-5.53-7.77-5.53,0,0,1.89-11.88,2.05-24.04.17-12.15.07-24.67-1.22-30.9-1.3-6.24-1.53-20.83-.24-14.24,1.3,6.59,7.65,21.41,11.53,22.94,3.88,1.53,5.65-3.06,2.47-5.7ZM250.01,350.25h-3.64s-.25-28.48,2.34-27.78c2.58.71,1.3,27.78,1.3,27.78Z"/>
    <path class="st14" d="M249.09,252.36s-4.85,1.59-4.59,5.12-3.32,1.53-2.91-2.56,8-5.44,7.5-2.56Z"/>
    <path class="st11" d="M278.59,225.41s1.18,8.59-2.12,17.53c-3.29,8.94-3.65,16.59-2,19.76,1.65,3.18,4.55,8.82-.96,10.12s-5.39-11.29-5.39-20.12,0-35.06,0-35.06c0,0,.24-12.24,9.18-15.41s10.35-2.82,10.71-8-.47-4.71-3.06-7.41-3.06-7.76-2-13.18,6.59-11.88,14.24-9.53,8.71,14.82,5.53,20.12-4.82,12.12-.12,14.12,16.47,6.47,16.47,24.59,3.06,49.06-1.88,49.41-6.71-4.71-3.76-11.06,0-14.12-2.94-22.35-1.88-14.47-1.88-14.47c0,0-2.24,6-1.41,22.94.82,16.94.41,58.06.41,58.06l.53,40.76s13.7,5.24,11.88,10.47h-21.76s-2.12-85.83-4.94-87.06-4.94,87.06-4.94,87.06h-20.24s.56-6.77,11.24-10.47c0,0,3.85-114.41-.76-120.82Z"/>
    <path class="st14" d="M285.18,180.27c1.11,5.38,5.56,8.29,4.06,2.74-.82-3.06-.08-5.5.77-7.08.58-1.09.07-2.43-1.11-2.8l-.05-.02c-.86-.27-1.79.1-2.25.87-.84,1.43-1.92,3.84-1.41,6.29Z"/>
    <path class="st11" d="M379.88,236.94c-1.29-10.94-4-22.47-4-38.7s-13.29-19.53-13.29-19.53v-2.43c10.94-1.01,9.53-10.98,5.88-16.51-3.65-5.53.82-18.94-11.41-18.94s-15.53,9.64-15.53,14.7-2.24,7.06-3.41,15.3c-1.18,8.23,10.82,4.7,10.82,4.7.81,2.46-.28,2.88-1.56,3.06s-.91.92-.91.92c.7,2.33,4,6.49,8.35,7.32,4.19.79,7.62-3.88,7.87-4.22-.1.47-1.87,7.99-9.38,8.22-7.75.23-11.08-11.32-11.08-11.32-10.23.56-11.76,18.14-12,22.73-.23,4.59-1.29,29.17-2.94,36.82-1.65,7.65-1.76,13.88,2.35,14.71,4.12.82,4.59-5.53,2.95-7.06-1.65-1.53-2.47-5.18,0-9.41,2.47-4.24,3.05-8.59,4.47-18.94,1.41-10.36,2.58-17.42,4.58-16.59,2,.82-.7,7.64,2.12,9.53,2.83,1.88,2.71,5.64-2.35,14.47-5.06,8.82-5.29,25.05-5.29,25.05l-.36,44.36,6.47.59,4.36,54.48c-12,.84-14,6.46-14,6.46h42.23c0-6.23-13.83-6.46-13.83-6.46l5.13-53.31h5.64s.24-10.58,0-34.58c-.23-24-3.17-34.95-6.88-40-3.71-5.06-4.18-9.65-1.82-10.95,2.35-1.29,2.35-5.29,1.82-7.88-.53-2.59,2.41-5.53,2.41-.7s2.12,18.35,5.41,26.23c3.3,7.88,3.18,12.35,3.18,12.35-1.65,3.89-2.71,10.83.71,11.18,3.41.35,4.58-4.71,3.29-15.65ZM356.12,349.79h-3.8s-.79-54.32,1.9-54.61c2.69-.3,1.9,54.61,1.9,54.61Z"/>
    <path class="st14" d="M356.35,152.41s-6.12-.29-6.59,3.35.88,12.41-1.59,12.47-4.71-8.12-1.65-14c3.06-5.88,11-4.76,9.82-1.82Z"/>
    <path class="st11" d="M417.53,136.83s-7.88,0-10.47,6.59-.47,13.66,2.7,15.71,3.41,8.76-.47,9.94-19.18,8.93-21.29,16.94-1.76,12.36-1.76,12.36h2.35l-.82,31.41s-3.29,19.06.24,22.71,6.71-1.65,4.71-7.65,1.88-13.65,4-23.65,1.53-18.12,3.65-18.47,1.39,14.59,1.52,20.71-.4,104.18-.4,104.18h-2.12v18.47s-.71,3-8.47,6.71.35,4.53,7.41,3.94,14.12,0,14.12,0l3.71-100.65,3.71.18,3.18,100.65h22.24s3.12-2.29-2.29-5.12-7.29-5.06-7.18-11.53-.12-13.18-.12-13.18h-1.76s-.35-118.94.59-121.53,2.59,1.41,2.59,6.94,3.41,15.88,6.35,23.06-1.29,11.65-.59,14.12.94,5.18,5.29,4.71,1.18-18.47.59-32.71-2-21.76-1.18-22.12,2.85-.24,2.85-.24c0,0-.49-12.94-6.73-19.53s-17.18-10.12-17.18-10.12c0,0-3.65-1.29-1.41-7.41s5.18-5.63,4.59-12.23-1.29-5.54-2.71-10.72-8.35-7.06-8.65-5.76.66,3.17-.76,3.29Z"/>
    <polygon class="st9" points="403.06 243.71 433.06 243.71 433.06 325.24 423.35 325.24 421.94 252 411.71 252 411.53 325.24 402.18 325.24 403.06 243.71"/>
    <path class="st11" d="M499.41,288.62c-3.09-3.18-6.18-12-6.35-15.71-.18-3.7-.71-17.03-5.19-17.91s-5.4-1.41-5.4-5.12,6.62-6.44,5.2-13.85c-1.41-7.41-8.47-10.32-13.67-7.59-5.21,2.74-5.12,12.8-3.8,16.15,1.33,3.35,3.36,2.82,3.36,6s-1.59,3.44-5.3,3.53c-3.7.09-2.47,2.29-3.44,4.59-.97,2.29-16.94-8.12-16.94-8.12,0,0-3.12-.18-2.76,2.29.35,2.48,7.52,7.59,11.41,9.24,3.88,1.65,6.11,3.24,8.7,2.41,2.59-.82,2.41,1.15,2.41,1.15l.36,85.5c-5.65-.88-10.59,3.53-10.59,3.53l-1.06,2.17,40.24.83c0-6-9.53-5.83-9.53-5.83,0,0,.17-14.82.17-17.97s.62-30.03-.44-35.67c-1.06-5.65-.79-15-.97-20.91-.18-5.92.18-11.12,1.24-6.8,1.06,4.33,7.58,21.53,9.97,23.83,2.38,2.29,5.47-2.56,2.38-5.74ZM481.29,351.19h-7.91s-.56.58.85-8.36c1.41-8.95,1.64-29.45,2.41-34.14s2.53-.92,2.42,4.72c-.12,5.65.35,28.71,1.76,31.71s.47,6.07.47,6.07Z"/>
    <polygon class="st11" points="559.06 356.71 538.96 357.71 433.84 307.65 434.24 304.92 559.06 356.71"/>
    <polygon class="st11" points="0 373.41 724.24 373.41 702.82 435.3 722.59 494.59 0 494.59 21.88 436 0 373.41"/>
    <g>
      <path class="st8" d="M139.64,526.83h183.76c-4.12,3.4-7.82,7.36-10.98,11.76h-154.38c-5.75,0-11.19-2.62-14.77-7.11-1.23-1.54-2.44-3.09-3.63-4.65Z"/>
      <path class="st8" d="M582.34,526.83c-1.19,1.56-2.4,3.11-3.63,4.65-3.58,4.49-9.02,7.11-14.77,7.11h-154.38c-3.16-4.4-6.86-8.36-10.98-11.76h183.76Z"/>
      <path class="st8" d="M159.27,549.88h146.67c-1.68,3.74-3.01,7.68-3.97,11.77h-122.09c-5.79,0-11.33-2.33-15.42-6.43-1.76-1.76-3.49-3.54-5.19-5.34Z"/>
      <path class="st8" d="M562.71,549.88c-1.7,1.8-3.42,3.58-5.17,5.33-4.1,4.11-9.64,6.44-15.44,6.44h-122.09c-.96-4.09-2.29-8.03-3.97-11.77h146.67Z"/>
      <path class="st8" d="M300.22,576.88c0,2.65.15,5.26.46,7.83h-86.77c-10.19,0-20.05-3.56-27.94-10.02-.71-.58-1.42-1.16-2.12-1.75h116.49c-.08,1.3-.12,2.62-.12,3.94Z"/>
      <path class="st8" d="M538.14,572.94c-.7.59-1.41,1.17-2.12,1.75-7.89,6.46-17.75,10.02-27.94,10.02h-86.78c.31-2.57.46-5.18.46-7.83,0-1.32-.04-2.64-.12-3.94h116.5Z"/>
      <path class="st8" d="M303,596c1.24,4.12,2.86,8.06,4.83,11.77h-59.49c-8.02,0-15.88-2.12-22.86-6.06-3.26-1.84-6.47-3.74-9.65-5.71h87.17Z"/>
      <path class="st8" d="M506.16,596c-3.18,1.97-6.39,3.87-9.65,5.71-6.98,3.94-14.84,6.06-22.86,6.06h-59.5c1.97-3.71,3.59-7.65,4.83-11.77h87.18Z"/>
      <path class="st8" d="M328.66,630.83h-27.33c-13.41-2.97-26.46-6.92-39.09-11.77h53.21c3.84,4.55,8.28,8.52,13.21,11.77Z"/>
      <path class="st8" d="M459.75,619.06c-12.62,4.85-25.67,8.8-39.08,11.77h-27.35c4.93-3.25,9.37-7.22,13.21-11.77h53.22Z"/>
    </g>
    <path class="st1" d="M360.99,534.71c-22.22,0-40.24,18.88-40.24,42.17s18.02,42.18,40.24,42.18,40.24-18.88,40.24-42.18-18.02-42.17-40.24-42.17ZM360.99,601.19c-12.8,0-23.18-10.88-23.18-24.31s10.38-24.3,23.18-24.3,23.18,10.88,23.18,24.3-10.38,24.31-23.18,24.31Z"/>
    <ellipse class="st1" cx="360.99" cy="576.88" rx="10.83" ry="11.35"/>
    <path class="st14" d="M415.67,143.18s-3.62,2.91-1.76,6.09.97,6.09-.97,6.09-4.41-6.18-2.12-10.59,6.09-3.97,4.85-1.59Z"/>
    <polygon class="st2" points="104.61 272.83 115.06 272.83 115.06 308.47 121.24 308.47 121.24 313.59 100.68 315.88 100.68 311.12 104.61 309.71 104.61 272.83"/>
    <polygon class="st2" points="131.29 274.47 141.88 274.58 141.88 307.41 145.65 307.41 145.65 311.47 127.65 313.18 127.65 310 131.12 307.65 131.29 274.47"/>
    <path class="st2" d="M110.1,256.41l10.37,11.82v6.34c0,.59.48,1.07,1.07,1.07h1.18c.59,0,1.07-.48,1.07-1.07v-4.56c0-.5.4-.9.9-.9h1.65c.5,0,.9.4.9.9v4.56c0,.59.48,1.07,1.07,1.07h1.04c.59,0,1.07-.48,1.07-1.07v-4.65c0-.5.4-.9.9-.9h1.19c.5,0,.9.4.9.9v4.65c0,.59.48,1.07,1.07,1.07h.76c.59,0,1.07-.48,1.07-1.07v-4.68c0-.5.4-.9.9-.9h.97c.5,0,.9.4.9.9v4.68c0,.59.48,1.07,1.07,1.07h.65c.59,0,1.07-.48,1.07-1.07v-4.84h1.85v4.84c0,.59.48,1.07,1.07,1.07h.4c.59,0,1.07-.48,1.07-1.07v-4.82c0-.5.4-.9.9-.9h.78c.5,0,.9.4.9.9v4.82c0,.59.48,1.07,1.07,1.07h.85c.59,0,1.07-.48,1.07-1.07v-4.47c0-.5.4-.9.9-.9h.21c.5,0,.9.4.9.9v4.47c0,.59.48,1.07,1.07,1.07h.59c.59,0,1.07-.48,1.07-1.07v-4.71c0-.5.4-.9.9-.9h.29c.5,0,.9.4.9.9v4.71c0,.59.48,1.07,1.07,1.07h0c.59,0,1.07-.48,1.07-1.07v-4.74c0-.5.4-.9.9-.9h.47c.5,0,.9.4.9.9v4.5c0,.59.48,1.07,1.07,1.07h.41c.59,0,1.07-.48,1.07-1.07v-4.62c0-.5.4-.9.9-.9h0c.5,0,.9.4.9.9v4.85c0,.59.48,1.07,1.07,1.07h0c.59,0,1.07-.48,1.07-1.07v-4.94c0-.5.4-.9.9-.9h.38c.5,0,.9.4.9.9v4.74c0,.59.48,1.07,1.07,1.07h.97c.59,0,1.07-.48,1.07-1.07v-7.37l-19.68-15.35,4.68,2.12c.91.41,1.94-.25,1.94-1.25h0c0-.53-.31-1.01-.79-1.24l-7.77-3.69-9.26-2.03,20.56,21.88-23.38-21.88-4.41-1.06,22.59,22.41-26.21-23.56h-2.12l24.44,23.38-27.62-24.71h-3l25.24,24.26-28.15-25.41h-2.82l25.85,25.15-27.88-25.15,20.56,22.5-23.74-24.44h-3.82l23.05,27.09-27.53-29.56h-4.94l24.53,28.59h-2.56l-8.91-9.88h-3.62l-.02,1.24Z"/>
    <path class="st11" d="M182.65,202.59l21.47,2.59v-3.18l17.53,11.65v-32.41s-4.47-4.52-4.47-9v-8.24l6.12-5.88v-3.41h4.82v3.88l5.06,5.41v7.76s-2,7.29-4.82,10.24v125.53h7.88v13.88h-22.71v-3.06h6.59v-12.59l-37.47,11.41v-114.59Z"/>
    <polygon class="st12" points="221.82 223.77 194.29 212.42 194.29 249.18 221.82 254.47 221.82 223.77"/>
    <polygon class="st13" points="222.53 261.67 193.06 256.06 193.06 259.59 202.94 271.59 202.94 275.65 222.53 275.65 222.53 265.86 199.59 262.59 222.53 263.65 222.53 261.67"/>
    <polygon class="st13" points="221.82 281.77 221.82 299.24 213.53 301.77 207.79 303.53 207.79 299.24 204.7 300.24 204.7 303.53 202.59 304.09 194.29 306.27 194.29 282.24 202.59 282.1 208.06 282 213.53 281.91 221.82 281.77"/>
    <polygon class="st12" points="221.82 281.77 221.82 299.24 213.53 301.77 213.53 281.91 221.82 281.77"/>
    <polygon class="st12" points="208.06 282 208.06 301.53 207.79 301.7 207.79 299.24 204.7 300.24 204.7 303.53 202.59 304.09 202.59 282.1 208.06 282"/>
    <polygon class="st2" points="592.74 171.18 579.06 176.94 579.06 181.18 583.88 179.77 583.88 200.31 579.65 202.83 579.65 205.41 583.88 204.03 583.88 221.18 576.71 222.83 576.71 227.77 594.35 223.3 594.35 219.06 588.23 220.59 588.23 202.94 592.82 201.77 592.82 196.83 588.23 198.83 588.23 178.26 592.53 176.57 592.74 171.18"/>
    <polygon class="st2" points="569.33 180.76 558 186 558 189.8 559.85 189.18 559.85 208.06 557.29 208.86 557.29 212.47 560.03 211.59 560.03 227.21 557.29 228.44 557.29 232.77 569.21 230.03 569.21 225 563.25 227.03 563.25 211.41 569.82 209.38 569.82 203.47 563.56 207.36 562.94 189 569.21 186.44 569.33 180.76"/>
    <path class="st2" d="M620.12,211.18v6.12l-19.42,4.82v-5.53l2.88-.92,5.24-1.67v-17.64l-4.12,1.29v-2l4.12-2.82v-15.49c1.61,2.41,3.18,4.84,4.71,7.3v5.01l2.44-1.04c.78,1.29,1.55,2.59,2.31,3.89l-4.05,1.62v18.24l5.89-1.18Z"/>
    <polygon class="st5" points="546.53 319.06 546.53 328.54 504.1 316.49 504.1 312.18 506.82 312.18 506.82 307.41 546.53 319.06"/>
    <polygon class="st13" points="195.68 234.15 221.44 240.51 221.44 249.51 219.5 244.92 195.68 239.98 195.68 234.15"/>
    <path class="st9" d="M209.44,244.74v-2.91s-4.94-13.5,0-15.09,4.47,12.18,2.24,15.09v3.44l-2.24-.53Z"/>
    <g>
      <polygon class="st19" points="507.97 216.48 533.36 208.28 532.74 233.42 508.45 239.35 507.97 216.48"/>
      <polygon class="st4" points="524.77 207.63 526.26 207.15 532.46 205.14 532.46 208.56 530.84 208.56 530.84 219.33 532.69 218.76 532.69 222.6 530.7 223.32 530.75 234.75 533.36 234.42 533.36 237.6 525.01 239.35 525.01 235.32 527.33 234.28 527.33 210.79 524.77 211.64 524.77 207.63"/>
      <polygon class="st4" points="517.51 211.12 518.77 210.67 524.01 208.78 524.01 212 522.64 212 522.64 222.15 524.21 221.61 524.21 225.24 522.52 225.91 522.56 236.69 524.77 236.37 524.77 239.37 517.71 241.03 517.71 237.22 519.68 236.24 519.68 214.1 517.51 214.9 517.51 211.12"/>
      <polygon class="st4" points="509.7 212.66 510.96 212.2 516.19 210.31 516.19 213.53 514.83 213.53 514.83 223.69 516.4 223.15 516.4 226.77 514.71 227.44 514.75 238.22 516.96 237.91 516.96 240.91 509.9 242.56 509.9 238.76 511.86 237.78 511.86 215.63 509.7 216.44 509.7 212.66"/>
      <polygon class="st9" points="508.64 208.44 508.64 239.19 503.89 239.19 503.89 232.54 506.27 232.54 508.64 208.44"/>
    </g>
  </g>
  <g>
    <path class="st17" d="M61.32,402.59h16.02v47.26h25.63v15.75h-41.65v-63.02Z"/>
    <path class="st17" d="M119.71,423.33c0-14.51,12.99-21.63,26.08-21.63s26.17,7.21,26.17,21.63v21.54c0,14.42-12.99,21.63-26.08,21.63s-26.17-7.21-26.17-21.63v-21.54ZM135.64,444.87c0,4.63,5.16,6.85,10.24,6.85s10.15-2.31,10.15-6.85v-21.54c0-4.9-5.25-7.12-10.41-7.12s-9.97,2.49-9.97,7.12v21.54Z"/>
    <path class="st17" d="M238.89,452.34c-5.25,10.24-14.77,14.15-22.7,14.15-12.37,0-24.83-7.21-24.83-21.54v-21.72c0-14.24,12.46-21.54,25.1-21.54,7.74,0,17.09,3.29,22.16,14.51l-13,5.25c-4.27-7.83-18.33-6.05-18.33,1.78v21.72c0,7.57,14.24,9.7,17.71.98l13.88,6.41Z"/>
    <path class="st17" d="M310.18,465.6h-17.09l-4.09-12.64h-16.82l-3.92,12.64h-17.09l21.98-63.02h14.51l22.52,63.02ZM285.17,438.81l-4.36-18.42h-.45l-4.63,18.42h9.43Z"/>
    <path class="st17" d="M326.82,402.59h16.02v47.26h25.63v15.75h-41.65v-63.02Z"/>
    <path class="st17" d="M439.68,402.59h16.47l-18.16,63.02h-14.77l-5.61-17.44-2.22-14.42h-.27l-2.4,14.33-4.98,17.53h-14.77l-18.25-63.02h16.55l7.48,30.17,1.6,13.35h.44l1.51-13.26,7.03-22.07h12.1l6.5,22.16,2.05,13.17h.27l1.78-13.17,7.65-30.35Z"/>
    <path class="st17" d="M470.83,423.33c0-14.51,13-21.63,26.08-21.63s26.17,7.21,26.17,21.63v21.54c0,14.42-13,21.63-26.08,21.63s-26.17-7.21-26.17-21.63v-21.54ZM486.77,444.87c0,4.63,5.16,6.85,10.24,6.85s10.15-2.31,10.15-6.85v-21.54c0-4.9-5.25-7.12-10.41-7.12s-9.97,2.49-9.97,7.12v21.54Z"/>
    <path class="st17" d="M562.95,445.58h-2.85v20.03h-16.11v-63.02h25.19c13,0,23.05,5.96,23.41,20.74,0,11.66-4.72,18.25-12.37,20.65l17.18,21.63h-19.85l-14.6-20.03ZM569.45,431.87c10.06,0,10.06-14.42,0-14.42h-9.35v14.42h9.35Z"/>
    <path class="st17" d="M649.11,402.59h18.51l-17.62,31.6,17.62,31.42h-18.51l-11.04-21.45-10.77,21.45h-18.6l17.71-31.42-17.71-31.6h18.6l10.77,21.54,11.04-21.54Z"/>
  </g>
  <g>
    <polygon class="st17" points="29.1 473.55 43.35 435.4 29.1 394.64 21.05 394.64 35.3 435.4 21.05 473.55 29.1 473.55"/>
    <polygon class="st17" points="695.13 473.55 680.88 435.4 695.13 394.64 703.18 394.64 688.93 435.4 703.18 473.55 695.13 473.55"/>
  </g>
</svg>